# xmcd
#
# Track frame offsets: 
#        150
#        11662
#        24252
#        36992
#        49275
#        61672
#        73730
#        86997
#        97020
#        109345
#        119352
#        129400
#        140465
#        152725
#        163855
#        176340
#        188740
#        201137
#        212580
#        222937
#        236465
#        246390
#
# Disc length: 3430 seconds
#
# Revision: 0
# Processed by: cddbd v1.5.2PL0 Copyright (c) Steve Scherf et al.
# Submitted via: ExactAudioCopy v0.95b4
#
DISCID=3f0d6416
DTITLE=Orval Prophet - The Travellin' Kind
DYEAR=1900
DGENRE=
TTITLE0=The Travellin' Kind
TTITLE1=Don't Trade Your Love For Gold
TTITLE2=The Judgment Day Express
TTITLE3=Another Day
TTITLE4=I'm Going To Birmingham
TTITLE5=Forget Me Not
TTITLE6=Molly Darling
TTITLE7=Tears On Her Bridal Bouquet
TTITLE8=Crown Of Thorns
TTITLE9=I'm Gonna Sink Your Boat
TTITLE10=Wild Fire
TTITLE11=Goodbye Katie, Bar The Door
TTITLE12=Tired Little Mother
TTITLE13=My Heart's On The Borderline
TTITLE14=With God's Hand In Mine
TTITLE15=Beautiful Bells
TTITLE16=Tennesseean Rollin' Rollin' Home
TTITLE17=Town Of Memories
TTITLE18=Half A Heart
TTITLE19=Mademoiselle (My Used To Be)
TTITLE20=Forgotten Dreams
TTITLE21=Over In That Happy Land
EXTD=
EXTT0=
EXTT1=
EXTT2=
EXTT3=
EXTT4=
EXTT5=
EXTT6=
EXTT7=
EXTT8=
EXTT9=
EXTT10=
EXTT11=
EXTT12=
EXTT13=
EXTT14=
EXTT15=
EXTT16=
EXTT17=
EXTT18=
EXTT19=
EXTT20=
EXTT21=
PLAYORDER=
